<?xml version="1.0" encoding="UTF-8"?>
<!DOCTYPE svg PUBLIC "-//W3C//DTD SVG 1.1//EN" "http://www.w3.org/Graphics/SVG/1.1/DTD/svg11.dtd">
<!-- Creator: CorelDRAW 2020 (64 Bit) -->
<svg xmlns="http://www.w3.org/2000/svg" xml:space="preserve" width="200mm" height="200mm" version="1.1" style="shape-rendering:geometricPrecision; text-rendering:geometricPrecision; image-rendering:optimizeQuality; fill-rule:evenodd; clip-rule:evenodd"
viewBox="0 0 20000 20000"
 xmlns:xlink="http://www.w3.org/1999/xlink"
 xmlns:xodm="http://www.corel.com/coreldraw/odm/2003">
 <defs>
  <style type="text/css">
   <![CDATA[
    .fil0 {fill:black}
    .fil1 {fill:black;fill-rule:nonzero}
   ]]>
  </style>
 </defs>
 <g id="Camada_x0020_1">
  <metadata id="CorelCorpID_0Corel-Layer"/>
  <path class="fil0" d="M14275.61 11865.8c-51.07,-189.2 -100.1,-348.37 -146.15,-476.5 -142.13,-389.38 -296.3,-775.76 -464.46,-1160.14 -262.26,-599.57 -502.5,-1155.14 -720.71,-1667.61 -98.1,-230.25 -198.21,-461.48 -298.27,-691.69 -162.19,-372.39 -323.32,-745.76 -484.49,-1118.11 -237.24,-550.53 -583.56,-993.97 -1091.09,-1290.27 -627.6,-366.37 -1309.26,-473.47 -2046.01,-321.31 -202.18,42.03 -408.4,118.11 -620.61,228.2 -504.49,262.3 -880.85,647.66 -1129.11,1157.15 -43.05,88.11 -94.09,200.21 -152.12,334.32 -469.46,1088.1 -865.87,2035.01 -1295.31,3015.97 -71.05,163.17 -137.1,326.34 -207.17,483.5 -198.2,441.43 -363.38,863.83 -497.5,1267.23 -91.1,274.29 -144.14,573.58 -191.2,867.84 -33.41,204.49 -50.17,411.17 -53,619.17l0 130.63c2.34,172.52 13.88,345.83 32.99,519.44 122.12,1110.12 700.69,2190.16 1516.47,2936.9 228.24,208.23 463.49,384.38 706.71,528.52 242.24,143.16 408.4,235.24 499.5,276.29 389.38,174.14 816.81,298.27 1283.24,374.35 151.18,25.05 303.31,41.05 456.45,48.05 109.53,5.41 218.56,9.04 327.22,10.03l116.03 0c255.06,-2.43 508.2,-21.46 760.96,-69.09 494.47,-93.1 958.94,-255.25 1393.37,-486.48 793.76,-423.39 1444.4,-1093.06 1882.85,-1879.82 225.21,-404.43 388.38,-849.87 489.47,-1334.32 161.17,-772.76 138.13,-1540.54 -68.06,-2302.25zm-1026.02 -1518.52l0 -2.01 108.09 225.22c0,0 2.01,5.03 2.01,7.03 0,9.01 -7,16.01 -15.02,16.01l-229.19 4.01 -18.05 0c-9.99,0 -18.99,-4.01 -24.02,-12.03 -48.05,-70.07 -116.11,-112.1 -205.2,-127.12 -25.01,-4.01 -121.11,-17.02 -216.22,43.05 -69.04,44.04 -102.07,104.08 -115.08,132.11l-9.01 0c-9.04,21.04 -16.04,42.07 -21.03,64.09 0,0.99 0.98,0.99 0,2.01 -5,22.02 -7,44.04 -7,67.04 0,23.04 2,45.06 7,67.07 0.98,0.99 0,0.99 0,2.01 4.99,23 11.99,44.04 21.03,65.07l1.97 0c79.11,61.06 157.16,122.12 236.26,183.19 130.11,1.96 265.25,-50.06 319.31,-173.2 2.99,-7.98 9.99,-11.01 18.01,-11.01l31.02 0 349.35 4.01c12.03,0 20.01,6.02 25.04,17.02l152.12 377.38c11.01,26.03 2.01,39.05 -26.02,39.05l-994.96 0c0.98,48.01 0.98,97.07 0.98,146.11 1.03,55.08 1.03,110.13 2.01,165.17 48.05,0 121.14,-0.98 209.21,0 72.07,0.99 89.1,2.99 163.17,4.01 128.1,0 256.24,0 384.38,2.01 127.12,0.98 253.25,2.99 379.35,4.01 7.03,-1.02 13.01,3.97 15.02,11.01l62.08 237.21 0 5.03c0,11.99 -10.03,22.02 -22.02,22.02l-556.55 -4.01c-277.28,0.98 -554.55,2 -831.82,2 -8.02,0 -16.01,-5.03 -18.01,-13.01 -59.06,-209.22 -139.15,-412.41 -240.24,-609.6 -108.12,-211.22 -249.24,-404.43 -398.41,-591.58 -90.08,-113.12 -98.1,-277.28 24.02,-367.36 25.05,-18.04 64.09,-27.05 115.13,-27.05 313.29,2.01 625.59,6.02 936.92,11.01l351.35 -7c13.99,0 27.01,8.02 33.02,20.02zm-230.21 -540.52c5.98,0 12,5 14,11.01 24.03,69.05 57.05,138.13 98.1,207.21l0 2.99 -6.01 6.02 -424.41 2.98c-357.36,-2.98 -710.72,-2.98 -1060.06,1.03 -30.01,0 -57.06,5.97 -79.07,18 -28.04,14 -51.04,29.02 -70.07,46.05l-246.25 152.16c-5.98,3.97 -14,3.97 -20.01,0 -53.05,-31.06 -107.11,-63.07 -162.15,-95.11 -425.43,-248.26 -886.87,-379.39 -1382.36,-394.41l11 -230.21c0,-7 6.02,-13.01 13.02,-13.01 271.26,4.01 540.55,41.05 805.79,111.11 77.07,21.04 116.11,32.05 153.15,46.05 130.52,49.22 212.35,108.73 357.36,118.11 45.02,2.99 78.05,2 92.09,2 216.21,2.01 245.23,2.99 257.26,0.99l189.16 0c474.5,-16.01 961.97,-14 1459.46,7.03zm-2094.06 -3942.9c0,0 5.98,4.01 9,6.02 0,0 2.99,2.01 5,4.01 4.99,4.01 41.05,31.02 90.08,68.06l99.12 75.06c0,0 7,5.03 11.01,8.02 -2.01,2.01 -6.02,6.02 -10.03,10.03 -73.05,73.05 -102.11,97.07 -151.14,143.12 -66.06,63.06 -162.15,165.17 -188.18,190.18 -9,9 -19.03,17.03 -19.03,17.03 -8.02,6.99 -16,13.01 -20.99,17.02 -12.04,11.01 -23.04,23 -35.08,34.01l4.01 206.23 0 22.01c10.03,0 21.04,0 31.07,-0.98l190.18 -5.03c0,0 0.98,-0.98 0,-2.01 16,-29.01 35.03,-58.03 56.03,-88.07 107.1,-155.15 238.23,-258.24 346.35,-324.34 66.06,52.06 157.16,135.14 236.23,260.29 55.05,86.07 88.07,168.16 109.11,233.2 2,2 2,4.01 2,6.01 0,7 -6.99,14.04 -14.03,14.04l-273.26 0c-57.06,-1.02 -131.13,-7.04 -178.16,24.02 -104.11,69.05 -122.12,234.22 -6.01,306.3 25,15.01 67.07,22.01 127.11,20.01 74.08,-2.01 145.17,-2.01 215.23,0l255.26 -8.02c14.98,0 26.03,6.01 33.03,20.05 32,63.03 71.05,124.09 99.08,189.16 88.07,208.19 181.18,425.43 280.26,650.64 1.02,2.01 1.02,4.01 1.02,6.02 0,7.98 -7,15.02 -15.02,15.02l-674.66 0c-15.02,0 -28.04,-7.04 -37.04,-18.05 -99.08,-122.08 -278.26,-147.13 -387.37,-65.03 -4.99,3.97 -9,7 -13.01,11.01 -4.01,4.01 -9.01,9 -13.02,13.01 -36.05,38.02 -60.07,90.08 -65.07,158.14 -9,121.14 27.01,210.2 109.11,268.27 111.12,78.09 274.29,59.06 369.36,-35.03 13.01,-13.01 29.02,-20.01 47.06,-20.01l5 0c88.07,-3.03 177.17,-5.04 264.26,-5.04l539.53 4.01c6.99,0 12.03,3.03 15.02,10.03 63.06,146.15 130.14,287.26 202.17,422.4 4.01,8.02 2.01,13.01 -7.98,13.01 -142.14,6.02 -287.3,11.01 -432.43,15.02l-8.02 0c-16,0 -28.03,-7 -38.02,-23 -81.07,-121.14 -188.18,-185.19 -324.34,-191.2 -143.12,-6.02 -251.24,62.04 -334.32,178.19 -13.02,18.01 -35.03,29.01 -57.05,30l-2.99 0c-310.3,2 -618.64,11.01 -929.92,11.01 -9.01,0 -16.01,-7 -16.01,-16.01 0.99,-813.81 0,-1598.57 -2,-2354.31 0,-34.05 9,-60.04 27.01,-77.06 127.12,-120.12 200.21,-204.22 464.47,-436.44 4.99,-4.01 9,-8.02 11.01,-10.03zm359.62 2423.4l-5.28 0c-91.1,0 -165.18,-74.08 -165.18,-165.18 0,-91.06 74.08,-165.13 165.18,-165.13 9,0 18.01,0.98 26.03,2l4.01 0 0.05 0.01 0.93 -0.01c91.1,0 165.18,74.08 165.18,165.14 0,91.1 -74.08,165.18 -165.18,165.18 -8.75,0 -17.35,-0.69 -25.74,-2.01zm1821.13 6919.71l-0.6 0.01 -0.6 0.01 -0.6 0.02 -1.2 0.01 -0.6 0.01 -0.6 0.01 -0.61 0 -0.6 0.01 -0.2 0 -0.41 0 -0.61 0c-22.02,0 -44.04,-2.01 -65.07,-5.98 -3.39,-0.49 -6.55,-1.22 -9.59,-1.95l-0.29 -0.07 -0.3 -0.07 -0.29 -0.07c-2.38,-0.52 -4.77,-1.03 -7.13,-1.6l-0.28 -0.05 -1.12 -0.2c-12.03,-3.03 -23.04,-6.02 -34.05,-10.03 -9,-2.99 -18,-6.01 -26.02,-9.99 -9.99,-4.01 -19,-9 -28.04,-14.03 -42.03,-22.02 -78.05,-52.06 -108.09,-89.1 -4.99,-7 -11,-13.99 -16,-20.99 -6.01,-8.02 -11.01,-17.03 -16.04,-26.03 -7,-12.03 -13.01,-25.05 -18.99,-37.04 -2.01,-4.01 -3.03,-8.02 -5.03,-13.01 -7.99,-19.03 -14,-38.03 -18.01,-58.08 -1.02,-2.99 -1.02,-5.98 -2.01,-9l1.62 -0.14c-3.7,-20.75 -5.63,-42.11 -5.63,-63.91 0,-22.81 2.16,-45.13 6.22,-66.78l-1.22 0.72 -3.98 2.01c19,-99.12 76.09,-183.19 157.16,-235.24 14.07,-9.15 28.14,-17.32 42.92,-24.48l0.98 -0.48c6.31,-3.11 12.7,-6.08 19.21,-8.82 6.56,-4.48 12.36,-6.4 19.97,-9.28 2.99,-0.98 7.98,-2.99 7.98,-2.99 3.03,0 6.02,-2 9.01,-2 3.02,-1.02 6.01,-2.01 9.04,-2.01 6.63,-1.8 13.61,-3.24 20.95,-4.54 7.19,-1.48 14.48,-2.73 21.82,-3.78l0.42 -0.07 0.42 -0.06c2.53,-0.41 5.06,-0.73 7.6,-0.99l0.42 -0.04 0.42 -0.04c13.79,-1.62 27.81,-2.47 42.04,-2.47 34.69,0 68.25,4.93 100.03,14.1 0.94,0.11 1.78,0.33 2.59,0.78l6.88 2.11 1.61 0c0,0 1.97,0 1.97,1.02l-0.44 0c144.24,47.45 248.7,183.46 248.7,343.33 0,197.32 -158.17,358.26 -355.73,361.26zm934.3 -1901.76l-11.99 282.27c0,6.99 -1.03,13.01 -2.01,20.01l-33.03 0c-81.11,-0.98 -161.16,-2.01 -242.24,-2.99 -83.08,-73.09 -166.16,-146.15 -249.28,-219.24 -212.2,-2 -402.38,-2 -412.37,0 -12.03,4.01 -240.24,263.28 -240.24,263.28 -10.02,4.99 -19.03,9.99 -29.05,15.02 -119.1,4.99 -238.23,9.98 -358.35,13.99 -20.01,1.03 -40.03,1.03 -60.04,2.01 -12.03,-24.02 -36.06,-64.05 -83.08,-95.11 -75.1,-49.03 -184.21,-58.04 -267.29,-3.97 -90.08,59.05 -103.09,163.13 -107.1,194.19 -2.01,13.02 -21,195.18 107.1,277.24 109.11,69.08 266.27,40.06 353.36,-77.07 18.01,0 35.03,-0.98 53.04,-0.98 165.18,-3.03 331.34,-6.02 496.51,-10.03 14,-4.99 29.02,-11.01 43.02,-17.02 99.12,-93.07 198.2,-186.18 297.32,-280.26 109.11,96.09 218.22,191.2 328.31,286.27 17.03,0 320.33,-11.01 336.33,-9.98 0.99,0 6.02,0 10.03,3.97 2.99,3.03 4.99,7.04 4.99,12.03 -10.02,124.13 -60.07,239.21 -84.1,360.35 -9.99,55.05 -21,109.11 -32,163.17 -1.03,5 -7.04,9.01 -12.04,9.01 -2,0 -2.98,-1.02 -4.99,-1.02 -8.02,-4.01 -15.02,-9.99 -20.01,-18.01 -76.08,-131.13 -166.16,-234.22 -270.28,-309.32 -186.17,-133.13 -441.43,-176.15 -652.65,-97.08 -172.17,65.07 -328.31,171.16 -425.42,320.33 -27.01,41.01 -54.03,84.06 -82.06,130.11 -9,14.03 -25.05,24.02 -41.05,25.04 -95.11,9.01 -190.18,-1.02 -286.28,-1.02 -124.12,2.01 -237.24,1.02 -337.35,0 -38.02,0 -74.07,17.02 -108.09,51.07 -161.16,166.16 -320.32,325.33 -477.48,475.44 -86.07,82.1 -178.15,152.17 -272.24,227.23 -22.02,17.02 -35.03,44.03 -35.03,71.08l-5.04 178.16c-0.98,16.04 -9,23.04 -24.02,23.04l-682.65 -9.01 -37.04 0c-8.02,-1.02 -15.02,-3.02 -22.02,-8.02 -175.2,-127.12 -405.41,-43.05 -382.37,196.2 5.98,61.06 30,104.12 71.05,129.12 83.08,50.06 219.2,82.1 287.3,0 18.01,-21.03 50.05,-27.01 75.06,-27.01l16 0c303.31,2.99 614.63,5.98 933.94,11.01 13.99,0 26.02,-11.01 26.02,-25.05 0.99,-88.07 2.99,-175.16 4.01,-261.23 0.99,-31.02 12,-56.07 35.04,-77.1 159.16,-144.14 309.28,-287.26 450.43,-430.42 62.05,-63.07 133.13,-118.11 201.19,-178.15 23.04,-21.04 54.07,-32.05 84.11,-30.04l455.42 0c7,0 12.03,4.99 12.03,11.01 0,47.06 -4.01,93.1 11.01,138.12 25.01,78.09 60.04,154.17 103.1,229.23 6.01,12.03 4.99,23.04 -5,32.04 -117.13,105.1 -217.23,229.23 -337.35,331.34 -45.02,38.02 -110.09,96.09 -186.17,172.14 -16.01,21.03 -32.05,41.05 -49.07,62.08l-18.01 23c-9.99,0 -19.03,0 -29.02,-0.98 -7,0 -14,-1.02 -21.03,-1.02 -9.01,-18.01 -32.01,-59.06 -80.06,-82.06 -86.1,-43.05 -175.2,8.02 -190.18,16 -40.06,22.02 -72.07,58.08 -96.09,109.11 -21.04,43.05 -21.04,96.1 -5.04,140.13 39.05,110.13 127.12,160.19 264.26,150.16 41.05,-29.02 81.08,-62.05 120.12,-100.1 2.01,-2.01 5.03,-4.01 7,-7l5.03 0c0,0 9.99,0 15.02,-0.99l14 0 0 20.02c2.99,37.03 4.99,76.08 6.02,116.1 0.98,40.03 2,79.07 0.98,117.13 46.04,-3.02 84.1,-3.02 110.13,-2 50.05,0.98 78.05,3.97 148.11,4.99 25.05,0.99 46.08,0.99 59.1,0.99 0,-124.09 0,-249.24 -1.02,-373.37 46.04,-41.01 93.1,-82.06 139.14,-124.09 190.19,-173.2 330.32,-300.32 345.34,-312.31 2.99,-2.01 11.01,-9 22.02,-9 6.01,0 13.01,0 18.01,4.99 175.16,123.11 358.34,139.15 562.56,109.11 15.02,-3.03 24.03,0 28.04,4.01 4.01,7 -6.02,20.01 -10.03,26.03 -31.02,44.03 -144.14,182.16 -157.15,198.16 -51.04,46.05 -101.09,91.1 -152.17,136.16 -22.01,9.99 -45.02,20.02 -67.03,30l-187.2 3.03 -52.06 0 0 53.04 -2 286.28c0,19.03 -7,34.05 -21,46.04 -241.26,206.23 -509.53,395.39 -803.79,568.55 -319.34,188.21 -651.66,293.31 -1001.01,390.39 -179.17,50.05 -374.35,87.09 -586.55,112.14 -410.41,42.03 -800.8,46.04 -1192.18,-27.05 -99.12,-19.03 -199.19,-35.04 -298.31,-49.03 -109.11,-15.02 -208.19,-36.06 -298.27,-63.07 -236.26,-70.07 -425.42,-137.14 -568.58,-201.19 -111.12,-50.06 -229.23,-103.1 -354.34,-157.16 -15.02,-7 -29.02,-16.04 -40.03,-28.03 -9,-10.03 -7,-15.02 7,-15.02 549.56,1.02 1088.06,1.02 1615.6,2.99 30,0 43.01,-9.99 38.02,-31.03l0 -236.22c0,-13.02 -6.02,-20.02 -19.03,-20.02l-2077.04 -4.99c-9,0 -16.99,-2.01 -24.02,-7.04 -27.02,-16.98 -56.03,-33.03 -79.07,-54.02 -78.09,-70.07 -158.14,-137.14 -239.22,-201.2 -14.03,-11.04 -12.03,-16.04 5.98,-16.04l2545.52 2.01c152.16,-8.02 304.29,-2.01 454.44,-2.01 308.3,-2 616.6,-2 924.89,-2 9.04,0 18.05,0 28.04,2 104.11,8.02 232.25,52.06 302.32,-51.03 51.03,-75.1 43.01,-197.18 -35.04,-254.27 -75.09,-55.05 -153.14,-39.01 -234.26,-12 -25,8.02 -53.04,13.02 -82.05,16.01 -40.03,4.01 -83.08,5.03 -119.14,5.03 -487.47,-3.03 -962.95,0 -1426.4,9.99l-2674.6 4.99c-8.02,0 -15.02,-3.97 -20.05,-9.99l-91.06 -122.12 -237.25 -304.29c0,0 -2.01,-3.02 -2.01,-5.03 0,-2.99 7,-7 7,-7l1021.03 4.01c11,0 23,7 29.01,17.03 85.09,139.11 207.21,183.18 365.35,130.1 182.2,-60.04 250.26,-322.29 127.16,-459.44 -126.14,-140.13 -333.35,-154.16 -453.46,0 -13.02,16.01 -25.01,31.03 -39.05,46.05 -7,7 -16,11.01 -25,11.01l-1185.18 -6.02c-11.01,0 -20.02,-4.99 -25.01,-14 -199.23,-350.36 -368.37,-724.72 -472.49,-1118.1 -168.16,-638.65 -185.19,-1287.25 -52.06,-1947.92 66.1,-328.31 144.14,-620.6 233.24,-875.86 40.07,-116.1 134.15,-352.33 282.27,-707.69 59.05,-139.15 120.12,-282.27 185.19,-429.44 174.18,-394.36 347.34,-788.76 519.51,-1182.15 64.05,-150.15 125.12,-293.27 180.2,-430.42 70.07,-173.16 136.12,-331.33 199.19,-475.48 208.19,-477.44 405.37,-933.89 590.56,-1368.32 147.17,-342.35 377.38,-660.67 680.68,-893.91 340.35,-263.23 721.7,-414.37 1143.11,-454.44 271.3,-25.01 539.53,-9 804.81,48.05 166.16,36.05 303.31,107.1 457.43,161.16 2.01,0 3.03,0 3.03,0 5.98,5 7.98,13.02 3.97,20.02 -0.98,0 -1.96,2 -1.96,2l-455.47 455.47c-17.02,16 -26.03,38.02 -26.03,62.04l2.01 2786.74c0,8.02 4.01,12.03 11.99,12.03l833.83 0 339.36 7 2.98 0c10.03,0 17.03,4.01 22.02,13.02 74.08,141.11 183.19,243.22 350.37,252.23 121.1,6.99 223.21,-35.04 306.29,-124.13 9.99,-11.01 30.04,-40.03 59.06,-87.05 24.02,-38.06 49.03,-64.09 74.07,-77.11l4.01 0 502.49 7.04c14,0 27.02,9 34.02,21 74.07,139.14 134.15,279.28 181.18,418.42l0 5.98c0,9.04 -7.99,18.05 -18.01,18.05l-429.44 7 -562.53 4.99c-168.17,-2.01 -336.33,-4.01 -506.5,-4.99l-254.27 0c2,-67.08 4.01,-133.14 6.01,-199.19 -306.29,-10.03 -555.53,-31.06 -727.71,-49.07 -193.21,-18.99 -282.26,-35.03 -464.46,-46.04 -187.16,-11.01 -380.37,-12 -577.56,-4.01 -447.44,18.04 -890.87,124.13 -1332.3,316.31 -85.09,38.06 -173.16,84.11 -264.26,141.16 -151.14,93.07 -295.29,190.18 -432.43,288.28 -26.03,19.03 -47.06,37.04 -62.08,55.05l-5.98 6.01c-141.15,143.12 -275.27,289.27 -401.4,437.42 -294.3,345.34 -496.48,738.72 -605.59,1181.17 -5.03,20.01 2.99,33.03 22.02,39.04l191.17 57.05c0,0 4.01,0.99 6.02,0.99 9,0 17.02,-7 20.01,-16.01 39.04,-138.12 86.07,-262.25 139.15,-373.37 192.19,-395.38 453.42,-767.73 788.77,-1073.04 25,-11.01 50.05,-27.05 75.06,-48.04 546.56,-457.47 1256.26,-679.7 1964.94,-695.71 15.02,0 27.01,12.04 27.01,27.05l4.01 212.21c-1129.11,38.02 -2077.04,646.63 -2595.53,1641.59 -303.31,582.58 -395.39,1250.24 -293.32,1907.89 61.06,397.39 211.22,707.69 211.22,707.69 4.01,9 7,15.02 9,20.01 9.01,-2.98 18.05,-4.99 27.05,-7.98 78.05,-22.05 149.14,-51.07 211.19,-85.08l3.02 0c19.03,-9.05 38.02,-18.05 57.05,-27.05 -6.01,-14 -15.02,-34.02 -25.04,-60.04 -84.07,-203.2 -222.19,-616.64 -220.19,-1142.13 0.99,-244.24 38.03,-482.48 110.1,-711.7 110.09,-349.35 279.28,-666.65 507.48,-951.94 187.2,-234.22 414.42,-430.42 680.68,-591.59 256.24,-154.13 551.56,-263.24 884.87,-325.32 553.56,-104.12 1080.07,-48.05 1580.56,167.18 215.23,113.08 404.39,230.21 568.55,352.33 335.34,250.27 593.59,567.57 775.75,952.93 95.11,201.19 133.13,399.4 174.18,613.6 3.03,13.02 14.04,22.02 27.05,22.02l1257.21 6.02 497.5 0c12.03,0 19.03,6.01 21.03,18.01l34.02 180.19c2,11.99 -2.01,17.03 -14,16l-416.42 0c-58.04,0 -116.11,0 -174.18,-0.98 2,40.03 3.02,81.08 4.01,123.11 1.02,50.05 2,98.1 2,146.14 17.03,0 40.07,0 68.06,0.99 31.06,0 55.09,-0.99 72.07,0 35.04,0 92.12,0 188.22,-0.99l285.26 4.01c14.03,0.99 21.03,8.03 21.03,21.04l4.01 172.14 -6.01 18.04c0,0 -11.01,2.99 -16.01,5l-177.2 -3.03 -1036.99 -1.97c-41.05,0 -81.12,0 -122.13,-1.02l-58.07 0c-8.02,-11.01 -92.08,-116.11 -222.23,-109.11 -127.11,7 -229.22,115.13 -244.24,240.24 -14.98,128.14 64.09,251.24 178.19,289.3 87.09,30.01 203.2,16.01 264.26,-54.06 13.01,-15.02 21.03,-29.02 26.03,-40.03l59.05 0c74.08,-1.02 148.15,-1.02 221.21,-1.02 77.1,-2 188.22,-4.01 322.33,-4.99 123.11,0 138.13,0 164.16,0l28.03 0c20.01,0 174.18,-2.01 607.59,-5.03l27.05 0c0,15.02 -2,29.05 -2,43.05l0.98 0 0 3.03z"/>
  <path class="fil0" d="M10422.83 5800.8c-6.02,98.1 -89.1,173.19 -186.21,168.16 -97.08,-4.99 -171.16,-88.07 -165.14,-185.15 6.01,-98.1 89.09,-173.2 186.17,-168.16 97.08,4.99 171.16,88.07 165.18,185.15z"/>
  <path class="fil0" d="M9910.31 6642.65l0 252.22c0,10.03 -4.99,16.05 -16,15.02l-445.44 0c0,0 -7.04,-4.01 -7.04,-9 3.03,-166.16 5.03,-333.3 7.04,-499.5 0,-25.99 0.98,-51.04 0.98,-77.07 -37.03,-6.01 -99.08,-22.01 -153.14,-71.05 -111.12,-100.1 -115.13,-268.27 -74.08,-384.37 11.01,-32.05 56.07,-145.17 176.19,-209.22 136.12,-72.07 320.29,-57.05 444.42,59.06 173.19,162.15 103.09,408.4 66.09,479.45 -23.04,44.07 -55.09,73.09 -55.09,73.09 -48.04,44.04 -102.07,57.05 -130.1,62.05 -2.01,23.04 -4.01,46.04 -5.03,69.08 -2.01,20.01 -3.98,40.03 -5,60.04 -2.99,51.07 -6.01,100.1 -8.02,148.15 0,11.01 6.02,17.03 18.05,17.03l171.15 0c10.03,0 15.02,4.99 15.02,15.02z"/>
  <path class="fil0" d="M8987.39 6091.09c-67.04,34.05 -135.14,68.09 -204.18,103.13 -200.21,101.09 -365.35,236.22 -494.51,403.37 -133.1,172.17 -232.22,349.34 -298.27,531.54 -5,12 -18.01,18.01 -30.04,14l-206.19 -82.09c-7,-2.99 -11.01,-12 -7,-19 47.03,-102.11 86.07,-211.22 139.11,-310.3 223.21,-416.42 582.59,-702.7 1014.03,-901.89l1.96 0c9.05,-4.01 20.06,0 23.04,11.01l0 2.01c18.01,75.06 41.05,150.12 70.07,227.22 2.99,7.98 0,17.02 -8.02,21z"/>
  <path class="fil0" d="M9140.53 6912.92c-54.02,182.16 -247.23,284.27 -431.4,229.23 -184.17,-55.09 -290.29,-246.25 -236.22,-427.43 55.04,-182.2 248.21,-284.28 432.42,-229.23 184.17,54.06 290.29,246.25 236.23,427.43l-1.03 0z"/>
  <path class="fil0" d="M10943.33 8162.15c0.98,55.05 -1.02,50.05 0,160.14 -2.01,76.08 -2.01,7 0,178.19 -2.99,14 2.99,20.02 -6.02,31.03l-49.03 0 -93.1 -2.01 -80.1 0 0 -1127.1c-0.98,-178.19 -0.98,-437.46 3.03,-759.75l0.98 0c10.03,0 21.04,0 31.07,-1.03 63.02,0 127.11,-1.96 190.18,-3.97l0 18.99c0,0 0.98,1.03 0,2.01 9,274.28 9.99,550.54 4.99,829.82l0 203.19c2.01,113.12 -3.02,426.41 -2,470.49z"/>
  <path class="fil0" d="M9897.3 7492.48c-26.03,177.17 -186.18,299.29 -358.35,274.28 -171.16,-25.04 -289.31,-189.2 -263.28,-366.37 26.03,-177.17 186.21,-299.29 358.35,-274.28 172.18,25.04 290.29,189.2 264.26,366.37l-0.98 0z"/>
  <path class="fil0" d="M11756.12 7656.63c-16,17.03 -49.03,50.05 -101.09,68.06 -90.08,32.05 -169.18,-2 -188.18,-11.01 -17.02,-9 -70.06,-34.01 -105.1,-95.07 -7.03,-12.03 -49.06,-86.11 -26.02,-175.16 30,-115.13 150.12,-175.21 233.2,-176.19 53.07,-2.01 100.1,18.01 100.1,18.01 10.03,4.01 34.05,16 59.06,36.05 72.07,61.06 84.1,148.12 84.1,152.13 13.01,101.12 -47.07,172.17 -56.07,183.18z"/>
  <path class="fil0" d="M11609.97 8085.05c12.03,98.1 -30.04,173.19 -55.04,208.23 -7,11.01 -12.03,18 -15.02,20.99 -20.02,21.04 -61.06,63.07 -126.14,85.09 -113.08,40.06 -211.18,-2.99 -235.2,-14 -21.03,-11.01 -88.11,-43.05 -131.13,-119.13 -9,-15.02 -61.06,-108.09 -33.03,-219.21 12.98,-51.03 41.02,-93.1 75.06,-125.11 4.01,-4.01 9.01,-9 13.02,-13.01 4.01,-4.01 8.02,-7.04 13.01,-11.01 59.06,-46.04 132.11,-70.07 190.19,-71.09 66.05,-2.99 125.11,23.04 125.11,23.04 13.01,5 43.05,20.02 74.07,45.02 32.05,27.05 54.07,57.05 69.09,86.11 30,54.02 36.01,101.09 36.01,104.08zm-134.11 39.04c0,-91.06 -74.08,-165.14 -165.18,-165.14 -91.1,0 -165.14,74.08 -165.14,165.14 0,91.1 74.04,165.18 165.14,165.18 91.1,0 165.18,-74.08 165.18,-165.18z"/>
  <path class="fil0" d="M8972.37 7340.31l0 252.27c0,6.02 -3.97,11.01 -9.99,11.01l-809.8 2.01c-6.02,0 -9.99,-5 -11.01,-11.01l0 -252.27c0,0 4.01,-9.99 10.02,-9.99l809.77 -3.02c6.02,0 11.01,5.03 11.01,11z"/>
  <path class="fil0" d="M12011.38 12838.73c0,1388.38 -1097.07,2514.46 -2450.41,2514.46 -1353.35,0 -2449.43,-1126.08 -2449.43,-2514.46 0,-1388.37 1097.11,-2514.46 2449.43,-2514.46 1352.32,0 2450.41,1126.09 2450.41,2514.46zm-3419.38 -1973.94c173.2,-78.09 379.39,-150.16 566.58,-144.14 102.07,4.01 202.18,92.08 226.2,189.2 36.06,145.12 -77.06,263.23 -213.18,287.26 -538.55,96.09 -1061.05,588.59 -1168.16,1147.15 -12.03,65.04 -18.01,139.11 -53.04,197.19 -48.05,80.09 -119.13,117.09 -211.22,112.09 -169.18,-9 -243.26,-218.21 -224.23,-359.33 80.09,-618.64 517.51,-1177.16 1077.05,-1429.42z"/>
  <path class="fil0" d="M7873.3 7557.55c-31.02,81.07 -120.12,123.11 -198.17,93.07l-1.02 0c-77.06,-30 -115.12,-121.11 -84.06,-202.18 32,-81.08 120.12,-123.15 198.16,-93.11 78.09,30.04 116.11,120.12 85.09,202.22z"/>
  <path class="fil0" d="M9366.77 7938.9l0 236.26c-0.98,16.01 -13.99,29.02 -30.04,29.02l-1820.76 -7c-8.02,0.99 -15.02,5.98 -19.03,13.02 -47.06,107.1 -97.11,218.21 -148.15,333.3 -54.06,120.12 -91.1,246.25 -129.12,372.39 -2.99,9.98 -12.03,17.02 -23.04,17.02l-268.23 0c-10.03,0 -18.05,-8.02 -18.05,-18.05 0,-2 0,-4.99 1.02,-7 141.12,-325.32 271.26,-643.64 390.39,-955.95 5,-13.99 19,-24.02 36.02,-24.02 664.64,5.03 1313.28,5.03 1945.91,0 21.04,0 43.06,-0.98 66.06,-3.97 9,0 17.02,5.98 17.02,14.98z"/>
  <path class="fil0" d="M9907.32 7957.93l0 275.27c0,0 -3.02,6.01 -7.03,6.01l-257.23 0c0,0 -7.03,-2.99 -7.03,-6.01l0 -275.27c0,0 3.02,-6.02 7.03,-6.02l257.23 0c0,0 7.03,3.03 7.03,6.02z"/>
  <path class="fil0" d="M9885.27 8807.76c-69.05,217.23 -317.3,267.29 -494.47,145.16 -30.04,-21.03 -48.05,-51.07 -77.07,-71.08 -7,-5 -14.03,-7 -22.02,-7l-1015 0c-7,0 -13.02,4.99 -15.02,11.99 -38.02,186.21 -175.17,317.34 -354.34,339.36 -274.29,34.01 -521.52,-246.25 -413.4,-520.5 131.13,-333.34 543.5,-348.36 733.69,-69.08 4.01,6.01 9.04,9.98 16.04,11.99 17.02,4.01 35.03,7.04 55.04,6.01 332.33,-6.01 661.66,-8.02 987.96,-6.99 10.03,0 17.03,-5 19.03,-14 46.04,-158.18 152.16,-230.25 319.31,-218.22 184.2,14 316.31,214.21 260.25,392.36z"/>
  <path class="fil0" d="M7256.71 9548.48c-73.1,114.14 -222.23,150.16 -333.35,80.09 -111.11,-71.05 -143.12,-221.2 -70.06,-336.33 73.09,-114.1 222.23,-150.15 333.34,-80.09 111.11,71.09 143.12,221.25 70.07,336.33z"/>
  <path class="fil0" d="M6984.42 9759.7c-81.07,96.09 -149.13,184.17 -204.18,262.26 -248.25,352.37 -462.46,724.71 -643.64,1118.1 -4.99,11.01 -13.01,14.03 -25.01,9l-144.14 -65.03c-6.01,-3.03 -10.03,-9.05 -10.03,-15.02 0,-2.01 0,-5.04 2.01,-7.04 47.03,-101.09 90.08,-202.18 130.14,-300.28 121.11,-302.28 289.27,-578.57 461.45,-848.84 73.05,-114.11 151.14,-225.22 234.22,-333.31 4.01,-5.03 11.01,-8.02 17.02,-8.02 9.01,0 17.03,5 20.02,13.02 19.02,47.06 88.07,117.13 150.15,114.1 7,0 13.02,3.03 17.03,10.02 11.01,17.03 9,34.02 -5.04,51.04z"/>
  <path class="fil0" d="M6024.5 11373.29l-203.2 680.68c-2,9.01 -32.04,7.99 -67.07,-2l-108.13 -32.04c-9.99,-2.99 -16,-12 -16,-22.02 0,-2.01 0,-4.01 0,-7l199.19 -668.65c3.02,-10.03 12.03,-16.04 22.01,-16.04l7.04 0 108.09 32.04c34.05,10.03 60.08,25.01 57.05,35.03l1.02 0z"/>
  <path class="fil0" d="M6449.89 13911.78c0,13.01 -7.98,24.02 -21,28.03 -69.08,23.04 -145.16,41.05 -227.22,53.04 -48.05,7.04 -51.07,-28 -60.08,-63.03 -72.07,-267.28 -111.11,-553.56 -117.09,-857.85 -8.02,-403.41 30,-791.8 112.1,-1167.17 2,-9 10.03,-15.02 19.03,-15.02 2,0 4.01,0 7,0 55.04,21.04 113.12,45.06 175.16,74.08 14.04,6.01 26.03,15.02 35.04,26.03 5.03,6.01 6.01,12.03 5.03,19.03 -76.08,321.31 -107.14,657.64 -96.14,1009.97 10.03,298.31 65.08,591.59 166.2,881.88 0,3.02 1.97,6.01 1.97,10.02l0 0.99z"/>
  <path class="fil0" d="M5810.29 12419.32c-16.04,87.09 -95.11,146.15 -177.16,131.13 -82.1,-15.02 -135.14,-98.1 -119.14,-185.19 16,-88.07 95.11,-146.15 177.17,-131.13 81.07,15.02 135.14,98.1 119.13,185.19z"/>
  <path class="fil0" d="M6798.25 15049.89l0 153.18c-226.24,0.99 -450.81,10.07 -686.13,1.48 -220.83,0 -197.14,4.08 -273.22,-207.66 -238.58,-665.78 -308.49,-948.35 -352.94,-1652.68 -13.02,-225.21 -18.01,-515.5 9,-854.82 4.01,8.02 50.05,88.07 144.14,99.08 72.07,8.02 143.16,-27.01 183.19,-90.08 -39.05,268.27 -78.09,672.66 -46.04,1105.09 16,203.2 45.05,392.4 52.05,432.42 21,131.13 49.03,302.32 111.12,520.54 33.02,116.11 79.07,260.25 146.14,421.38 4.01,11.05 13.02,29.05 32.01,44.07 45.06,39.05 580.84,24.71 680.68,29.02l0 -1.02z"/>
  <path class="fil0" d="M8214.66 15216.09c0,9 -3.03,16.98 -8.02,23 -48.05,59.06 -94.09,121.14 -139.15,188.18 -6.01,10.02 -14,17.02 -23,19.03 -27.05,9 -60.08,-20.02 -70.07,-30.04 -46.08,-41.05 -244.24,-204.18 -517.51,-430.42 -9.04,-9 -18.04,-18.01 -27.05,-27.01 -4.99,-5.03 -11,-11.01 -16,-17.03 -2.99,14 -9,34.05 -21.03,56.07 -44.04,77.06 -127.12,99.08 -151.14,104.08 -99.09,21.03 -175.17,-27.02 -187.2,-35.04 -81.07,-53.04 -123.11,-149.13 -113.08,-236.22 1.97,-17.03 9,-68.06 49.03,-114.1 36.02,-41.05 81.08,-57.06 101.09,-64.09 24.02,-7.99 45.06,-11.01 60.08,-12 -3.03,-4.99 -6.02,-9 -9.01,-13.99 -1.02,-2.01 -3.02,-5.04 -4.01,-7.04l-207.21 -350.33 0 -2c-4.99,-7 -8.02,-15.02 -12.03,-22.02 8.02,-2.99 15.02,-6.02 22.06,-9.01l1.97 0 212.24 -77.06c7,-1.02 13.99,-3.03 20.99,-5.03 2.01,5.03 5.04,10.02 8.02,15.02 82.1,153.14 187.2,306.29 320.33,456.45 194.2,162.15 389.37,323.31 583.57,484.48l110.09 75.06c11.01,7.03 16.04,18.04 16.04,31.06z"/>
  <path class="fil0" d="M6437.9 14891.75c-166.16,21.03 -318.33,-99.08 -339.32,-269.25 -21.04,-170.17 96.09,-324.34 262.25,-345.34 166.16,-21.03 318.29,99.08 339.32,269.26 22.02,170.17 -95.07,324.3 -261.27,345.33l-0.98 0z"/>
  <path class="fil0" d="M12184.54 15240.11c0,116.11 -94.09,210.2 -210.2,210.2 -116.11,0 -210.2,-94.09 -210.2,-210.2 0,-116.14 94.09,-210.23 210.2,-210.23 116.11,0 210.2,94.09 210.2,210.23z"/>
  <path class="fil0" d="M11853.24 15971.83c0,39 -10.03,76.04 -28.04,109.11 -38.06,71.05 -113.12,119.09 -200.21,119.09 -126.13,0 -228.2,-102.11 -228.2,-228.2 0,-126.13 102.07,-228.24 228.2,-228.24 84.1,0 157.16,45.05 196.2,112.09 20.02,34.05 32.05,74.08 32.05,116.15z"/>
  <path class="fil0" d="M11052.44 16200.03c0,126.14 -102.11,228.25 -228.25,228.25 -54.02,0 -103.09,-18.05 -142.13,-50.05 -53.04,-42.07 -86.07,-106.12 -86.07,-178.2 0,-45.05 14,-88.07 37.04,-123.1 40.02,-63.07 111.11,-105.1 191.16,-105.1 126.14,0 228.25,102.07 228.25,228.2z"/>
  <path class="fil0" d="M9982.38 16753.6c0,57.05 -16,109.11 -45.06,153.14 -51.03,77.07 -137.1,128.11 -236.22,128.11 -155.15,0 -281.29,-126.1 -281.29,-281.25 0,-155.19 126.14,-281.29 281.29,-281.29 110.13,0 205.2,63.07 251.24,155.16 19.03,38.02 30.04,80.05 30.04,126.13z"/>
  <path class="fil0" d="M9488.9 15729.59c-13.02,88.07 -73.06,168.16 -160.15,202.17 -98.1,38.06 -212.24,11.01 -287.3,-69.04l-163.17 0 -1001.95 -2c0.98,-97.12 0.98,-195.22 2,-293.32 34.01,0 106.08,0 141.12,-0.98 331.33,-1.03 446.46,-1.03 642.62,-2.01 85.08,0 207.21,-0.98 356.38,-2l14 0c11.01,-20.02 40.02,-65.08 97.08,-95.08 7.03,-4.01 15.02,-7.03 22.05,-10.02 28,-10.03 59.06,-16.01 91.06,-16.01 5.04,0 10.03,0 14.04,0.99 18.01,1.02 32.01,4.01 39.04,6.01 99.09,23.01 148.12,99.09 157.12,112.1 9.04,15.02 48.09,81.08 36.06,169.19z"/>
  <path class="fil0" d="M11644.02 16789.62c-1.02,59.05 -4.01,89.09 -7,101.08 0,0 -7.03,23.04 -23.04,23.04 -49.03,0 -1309.26,-3.02 -1309.26,-3.02 -93.11,-1.97 -167.19,0 -208.23,0 -53.05,-1.97 -105.1,-2.99 -159.17,-3.98 -9.98,0 -20.99,-1.02 -31.02,-1.02 -8.02,13.02 -22.02,31.03 -42.03,47.07 -85.09,70.06 -200.21,43.01 -217.23,39.04 -25.01,-6.02 -94.09,-24.02 -135.1,-85.09 -26.03,-38.05 -32.05,-79.1 -35.04,-98.09 -7.03,-41.05 -3.02,-73.1 -2,-80.1 2,-11.01 11.99,-78.08 62.04,-135.13 80.09,-90.08 198.21,-87.09 215.23,-87.09 25.99,6.01 75.06,21.03 119.1,63.06 22.02,21.04 37.04,42.03 47.06,59.06 12,0 23,-0.98 34.01,-0.98 613.61,-20.02 1065.06,-30.04 1209.21,-31.03 49.03,0 225.21,0 309.31,0.99l108.09 0c20.01,0.98 40.03,0.98 60.08,0.98 1.97,64.09 2.99,127.16 4.99,191.21z"/>
  <path class="fil1" d="M8287.72 8852.82c0,7 0,15.02 -0.99,22.02 -11.01,224.23 -195.21,401.4 -422.44,401.4 -227.22,0 -423.42,-189.2 -423.42,-423.42 0,-234.22 190.19,-423.42 423.42,-423.42 155.16,0 290.29,83.08 363.35,207.21 38.06,63.06 60.08,137.14 60.08,216.21z"/>
  <path class="fil1" d="M10008.41 6001.01c0,187.19 -121.14,345.33 -289.3,401.4 -42.03,14 -87.06,22.02 -134.12,22.02 -47.06,0 -93.1,-8.02 -136.12,-23.04 -167.18,-56.03 -287.3,-214.21 -287.3,-400.38 0,-233.24 190.18,-423.42 423.42,-423.42 233.24,0 423.42,190.18 423.42,423.42z"/>
  <path class="fil1" d="M12176.55 8932.91c0,32.01 -4.01,63.03 -11.01,93.07 -42.07,189.2 -210.23,330.31 -412.41,330.31 -202.21,0 -356.34,-129.12 -406.39,-307.27 -11.01,-37.04 -17.03,-76.08 -17.03,-116.11 0,-67.08 15.02,-130.14 44.04,-186.21 68.06,-140.13 213.22,-237.21 379.38,-237.21 166.16,0 315.3,100.1 382.37,243.22 27.02,54.07 41.05,115.13 41.05,180.2z"/>
  <path class="fil1" d="M13162.5 10766.69c0,47.06 -9.98,92.08 -28.03,133.13 -51.04,117.13 -167.14,198.2 -303.3,198.2 -136.12,0 -251.25,-81.07 -303.27,-197.18 -9.04,-21.03 -16.04,-42.07 -21.03,-65.07 0,-1.02 0.98,-1.02 0,-2.01 -5,-22.01 -7,-44.03 -7,-67.07 0,-23 2,-45.02 7,-67.04 0.98,-1.02 0,-1.02 0,-2.01 4.99,-22.02 11.99,-43.05 21.03,-64.09 51.04,-116.1 167.15,-198.16 303.27,-198.16 121.14,0 227.22,65.03 284.31,162.15 30,50.05 47.02,107.1 47.02,169.15z"/>
  <path class="fil1" d="M12516.86 10766.69c0,23.04 -2.99,46.04 -9.99,67.07 0.98,0.99 0,0.99 0,2.01 -30.04,102.11 -124.13,177.17 -236.23,177.17 -136.16,0 -246.25,-110.09 -246.25,-246.25 0,-136.12 110.09,-246.25 246.25,-246.25 112.1,0 206.19,75.09 236.23,177.2 0,0.99 0.98,0.99 0,2.01 7,21 9.99,44.04 9.99,67.04z"/>
  <path class="fil1" d="M12499.87 13823.7c0,55.05 -15.02,107.11 -42.07,151.14 -51.04,86.11 -144.14,143.16 -252.23,143.16 -162.15,0 -294.3,-131.13 -294.3,-294.3 0,-163.17 132.15,-294.3 294.3,-294.3 110.09,0 205.2,60.08 256.24,149.18 24.02,43.01 38.06,92.08 38.06,145.12z"/>
  <path class="fil1" d="M12718.09 13111.01c0,59.06 -18.05,115.09 -47.07,161.13 -53.04,80.09 -143.12,133.13 -247.23,133.13 -162.15,0 -294.3,-131.12 -294.3,-294.26 0,-163.17 132.15,-294.3 294.3,-294.3 102.11,0 191.17,52.06 244.24,129.13 31.03,47.06 50.06,104.11 50.06,165.17z"/>
  <path class="fil1" d="M9510.91 15709.54c0,148.15 -120.11,268.27 -268.27,268.27 -91.06,0 -172.17,-45.02 -220.22,-115.09 -30,-43.05 -48.05,-96.09 -48.05,-153.18 0,-54.03 16.05,-105.1 44.08,-147.13 27.01,-41.05 66.06,-74.08 111.08,-95.08 7.03,-4.01 15.02,-7.03 22.05,-10.02 28,-10.03 59.06,-16.01 91.06,-16.01 5.04,0 10.03,0 14.04,0.99 16,0 28,3.02 36.02,4.99 125.11,23.04 218.21,131.13 218.21,262.26z"/>
  <path class="fil1" d="M10168.56 15709.54c0,51.07 -14,98.1 -39.05,139.14 -47.02,77.07 -132.11,129.13 -229.22,129.13 -148.12,0 -268.24,-120.12 -268.24,-268.27 0,-148.12 120.12,-268.24 268.24,-268.24 92.12,0 173.19,46.05 221.24,117.1 30,43.05 47.03,95.11 47.03,151.14z"/>
  <path class="fil1" d="M7437.88 14893.76c0,22.01 -2.98,44.03 -8.02,65.07 -29.01,117.09 -134.11,203.2 -260.25,203.2 -148.15,0 -268.27,-120.12 -268.27,-268.27 0,-139.15 105.1,-253.26 241.26,-267.25 9.01,-1.02 18.01,-1.02 27.01,-1.02 148.16,0 268.27,120.11 268.27,268.27z"/>
 </g>
</svg>
